# xmcd
#
# Track frame offsets:
#	150
#	17120
#	31695
#	47488
#	61953
#	79695
#	96148
#	113233
#
# Disc length: 1731 seconds
#
# Revision: 0
# Processed by: cddbd v1.5.2PL0 Copyright (c) Steve Scherf et al.
# Submitted via: EasyCDDAExtractor 12.0.0.1
#
DISCID=5606c108
DTITLE=Yolandita Monge - Brillantes Vol. 2
DYEAR=1995
DGENRE=Latin
TTITLE0=Una Historia De Amor (Cedo Para Mi)
TTITLE1=Que Te Hice
TTITLE2=Siempre Juntos
TTITLE3=Seras Mio
TTITLE4=Todas Las Noches Quiero
TTITLE5=Recuerdos (Lembrancas)
TTITLE6=Fuiste Un Sueño
TTITLE7=Si
EXTD=
EXTT0=
EXTT1=
EXTT2=
EXTT3=
EXTT4=
EXTT5=
EXTT6=
EXTT7=
PLAYORDER=
